<?xml version="1.0" standalone="no"?>
<!DOCTYPE svg PUBLIC "-//W3C//DTD SVG 20010904//EN"
 "http://www.w3.org/TR/2001/REC-SVG-20010904/DTD/svg10.dtd">
<svg version="1.0" xmlns="http://www.w3.org/2000/svg"
 width="626.000000pt" height="626.000000pt" viewBox="0 0 626.000000 626.000000"
 preserveAspectRatio="xMidYMid meet">
<metadata>
Created by potrace 1.16, written by Peter Selinger 2001-2019
</metadata>
<g transform="translate(0.000000,626.000000) scale(0.100000,-0.100000)"
fill="#000000" stroke="none">
<path d="M1642 5759 c-73 -14 -146 -54 -201 -109 -61 -61 -96 -131 -111 -222
-13 -83 -14 -3759 0 -3841 21 -133 108 -250 224 -304 l61 -28 563 -3 c466 -2
562 0 562 11 0 7 16 62 35 122 20 60 34 116 33 125 -3 13 -71 16 -577 20
l-573 5 -24 30 -24 30 0 1912 0 1913 29 32 29 33 1462 0 1462 0 28 -32 c18
-20 31 -48 35 -75 3 -24 5 -882 3 -1908 -3 -1763 -4 -1866 -21 -1891 -25 -38
-58 -49 -143 -49 -88 0 -85 20 -19 -160 42 -111 45 -115 74 -118 18 -2 55 2
85 8 151 31 268 160 296 328 7 48 10 611 8 1962 l-3 1895 -26 66 c-43 112
-117 185 -230 232 l-54 22 -1470 2 c-808 0 -1489 -3 -1513 -8z"/>
<path d="M2053 4844 c-20 -10 -40 -32 -53 -59 -18 -37 -20 -49 -10 -84 12 -46
56 -88 103 -96 18 -3 448 -5 957 -3 873 3 926 4 952 21 80 55 69 187 -19 223
-27 12 -200 14 -965 14 -831 0 -937 -2 -965 -16z"/>
<path d="M2097 4183 c-44 -5 -101 -57 -110 -101 -13 -68 29 -132 101 -151 29
-8 309 -11 961 -9 914 3 920 3 948 24 15 11 37 36 47 55 39 71 -9 163 -94 180
-43 8 -1773 10 -1853 2z"/>
<path d="M3525 3276 c-83 -28 -117 -48 -164 -94 -26 -26 -52 -55 -57 -64 -8
-15 -15 -16 -54 -7 -165 38 -340 -48 -421 -208 -33 -65 -34 -70 -32 -177 l1
-110 -45 -43 c-25 -25 -58 -73 -76 -111 -29 -60 -32 -76 -31 -157 0 -104 25
-173 87 -242 48 -53 59 -83 63 -181 2 -61 9 -97 27 -135 29 -63 99 -153 126
-162 37 -12 43 14 -94 -420 -29 -93 -70 -223 -90 -288 -20 -65 -35 -121 -32
-124 3 -3 25 8 49 24 251 171 299 203 306 203 4 0 41 -99 82 -220 41 -121 77
-220 81 -220 3 0 32 84 64 188 31 103 77 248 100 322 24 74 55 173 70 220 l27
86 86 0 c48 0 99 4 113 8 26 8 27 5 59 -81 67 -179 90 -240 118 -313 55 -142
188 -493 225 -593 39 -104 43 -108 57 -57 12 45 29 102 89 293 17 54 31 105
31 113 0 8 5 14 10 14 11 0 114 -57 258 -143 46 -27 85 -47 88 -45 5 5 -79
235 -172 473 -30 79 -158 420 -191 512 -29 78 -26 94 20 143 30 33 59 128 64
210 7 95 34 179 84 254 54 81 73 151 66 244 -8 107 -48 183 -137 262 -67 60
-68 63 -80 128 -15 93 -51 162 -115 220 -63 57 -103 78 -182 94 -42 9 -63 19
-78 37 -71 94 -178 152 -290 157 -42 2 -86 -2 -110 -10z m265 -309 c118 -40
188 -83 276 -171 87 -88 139 -170 172 -276 30 -98 33 -114 33 -219 -1 -379
-305 -683 -686 -684 -64 -1 -125 6 -170 17 -204 52 -379 198 -465 389 -175
388 42 842 455 953 120 32 272 29 385 -9z"/>
</g>
</svg>
