<?xml version="1.0" standalone="no"?>
<!DOCTYPE svg PUBLIC "-//W3C//DTD SVG 20010904//EN"
 "http://www.w3.org/TR/2001/REC-SVG-20010904/DTD/svg10.dtd">
<svg version="1.0" xmlns="http://www.w3.org/2000/svg"
 width="725.000000pt" height="949.000000pt" viewBox="0 0 725.000000 949.000000"
 preserveAspectRatio="xMidYMid meet">

<g transform="translate(0.000000,949.000000) scale(0.100000,-0.100000)"
fill="#000000" stroke="none">
<path d="M3065 9453 c-66 -20 -113 -41 -120 -53 -3 -6 -14 -10 -25 -10 -10 0
-20 -7 -24 -15 -3 -8 -12 -15 -19 -15 -8 0 -78 -32 -156 -70 -153 -76 -249
-120 -261 -120 -5 0 -55 -28 -112 -61 -57 -34 -122 -70 -145 -80 -24 -10 -43
-25 -43 -33 0 -8 -9 -18 -20 -21 -11 -3 -20 -13 -20 -22 0 -14 3 -14 25 1 27
18 80 22 70 6 -3 -5 -16 -10 -29 -10 -12 0 -31 -8 -42 -19 -28 -26 -63 -43
-73 -36 -15 9 -130 -64 -172 -109 -25 -25 -67 -97 -113 -191 -90 -185 -125
-276 -162 -427 -15 -64 -31 -115 -34 -113 -3 1 -6 -27 -7 -64 -2 -54 0 -63 10
-46 6 11 12 22 13 25 14 42 18 50 26 50 10 0 6 -68 -7 -143 -4 -20 -1 -27 11
-27 10 0 14 5 11 15 -4 8 -2 17 3 20 6 4 7 13 1 23 -7 13 -4 25 10 42 l20 25
-6 -60 c-3 -33 -8 -112 -10 -175 -3 -63 -9 -144 -15 -180 -5 -36 -12 -84 -15
-107 -4 -24 -11 -43 -16 -43 -6 0 -7 -5 -4 -10 3 -6 3 -20 0 -31 -7 -20 -8
-20 -21 6 -8 15 -11 31 -8 36 3 5 0 9 -5 9 -6 0 -11 9 -11 20 0 22 -15 27 -23
8 -12 -34 -7 -165 7 -193 9 -17 16 -38 16 -47 0 -11 5 -15 15 -12 17 7 21 -11
5 -21 -5 -3 -9 -14 -9 -23 1 -15 2 -15 6 1 7 27 27 15 34 -21 7 -34 -7 -54
-22 -31 -7 11 -9 10 -9 -3 0 -10 7 -18 15 -18 9 0 15 -9 15 -24 0 -17 -5 -23
-17 -22 -16 1 -18 -11 -18 -119 0 -175 -6 -220 -16 -120 -11 120 -18 165 -26
178 -4 7 -12 104 -18 217 -5 113 -14 203 -19 202 -5 -2 -13 2 -17 10 -6 8 -9
0 -9 -24 0 -20 4 -40 10 -43 14 -8 3 -270 -16 -369 -8 -43 -14 -95 -14 -116 0
-41 18 -100 30 -100 10 0 50 -129 50 -162 0 -17 3 -19 9 -9 5 7 13 11 18 8 6
-4 8 4 5 18 -2 15 0 25 7 25 14 0 15 37 1 45 -5 3 -10 14 -10 23 1 28 27 -28
33 -69 6 -48 -16 -99 -43 -99 -34 0 -34 -26 0 -91 35 -68 38 -97 26 -234 -9
-101 -2 -111 13 -20 46 269 82 438 105 500 l15 40 2 -40 c4 -53 3 -72 -4 -123
-3 -29 -2 -40 5 -36 8 5 9 -1 4 -17 -4 -13 -7 -31 -6 -39 1 -8 1 -46 1 -83 -1
-50 3 -67 12 -65 6 3 14 21 17 42 6 41 26 50 24 11 -4 -101 -5 -110 -14 -90
-5 12 -6 -15 -3 -69 5 -66 3 -87 -5 -82 -7 4 -12 2 -12 -3 0 -6 4 -11 9 -11 5
0 16 -3 24 -6 12 -4 17 6 22 45 4 28 11 51 16 51 5 0 8 3 8 8 -1 4 -1 22 0 40
1 24 5 31 14 26 6 -4 3 3 -8 16 -14 16 -16 24 -7 27 6 3 12 11 12 19 0 9 -5
12 -12 8 -8 -5 -9 -2 -5 10 4 10 7 31 7 47 0 16 5 29 10 29 7 0 9 -13 5 -33
-4 -19 0 -51 9 -77 9 -25 16 -57 16 -72 0 -16 5 -28 10 -28 6 0 8 -10 5 -23
-3 -12 1 -36 9 -52 l15 -29 9 25 c19 51 21 53 17 14 -2 -22 -7 -77 -10 -123
-3 -46 -12 -102 -19 -125 -8 -23 -17 -61 -20 -84 -3 -23 -9 -49 -13 -58 -4
-13 -2 -16 8 -13 8 3 14 10 14 15 0 6 3 15 8 19 4 4 7 16 7 26 0 10 7 21 15
24 15 6 30 41 27 60 -1 6 4 16 11 22 11 10 13 2 12 -43 -1 -30 4 -66 11 -80 8
-16 9 -27 3 -31 -6 -3 -8 -13 -5 -21 11 -28 -72 -173 -99 -173 -2 0 -22 -18
-44 -40 -47 -47 -71 -52 -71 -15 0 23 -2 24 -20 15 -12 -6 -20 -21 -20 -36 0
-26 -30 -44 -73 -44 -13 0 -30 -9 -39 -19 -9 -11 -33 -23 -52 -27 -20 -3 -36
-10 -36 -15 0 -12 -23 -11 -57 2 -22 8 -24 12 -13 20 12 7 13 11 2 18 -13 8
19 20 69 26 22 3 104 96 145 166 6 11 13 18 15 16 2 -1 1 2 -3 8 -13 15 -9 25
7 19 10 -4 15 0 13 12 -3 42 2 54 25 54 16 0 18 -3 8 -9 -7 -5 -10 -14 -7 -20
13 -20 61 14 64 44 1 15 9 41 17 58 8 18 16 43 17 57 2 14 7 31 12 38 7 12 36
170 36 200 0 22 -18 13 -24 -13 -4 -16 -13 -25 -27 -25 -11 0 -18 -4 -15 -8 3
-5 -2 -21 -10 -36 -7 -16 -14 -36 -14 -45 0 -10 -3 -12 -8 -5 -5 9 -11 8 -20
-2 -7 -8 -8 -14 -2 -14 5 0 10 -4 10 -10 0 -5 -9 -10 -20 -10 -15 0 -20 -7
-20 -24 0 -14 -4 -28 -10 -31 -5 -3 -7 0 -4 8 3 8 1 18 -5 22 -7 4 -11 -3 -11
-18 0 -32 -33 -69 -54 -61 -21 8 -20 42 4 129 11 39 20 80 20 93 0 13 4 20 10
17 6 -4 7 6 4 25 -4 19 -2 30 5 30 6 0 10 -3 8 -7 -1 -5 3 -10 8 -13 6 -3 11
11 13 30 3 41 18 118 27 143 4 10 2 17 -4 17 -6 0 -11 -8 -11 -18 0 -10 -3
-22 -7 -26 -13 -13 -31 -79 -26 -94 4 -9 2 -13 -4 -9 -10 6 -43 -84 -43 -117
0 -9 -4 -24 -9 -34 -5 -9 -17 -45 -27 -79 -11 -35 -22 -63 -26 -63 -4 0 -6
-13 -4 -29 2 -19 -1 -28 -8 -25 -7 3 -20 -12 -30 -33 -31 -66 -80 -143 -91
-143 -18 0 -53 -42 -60 -72 -4 -16 -11 -28 -16 -28 -5 0 -21 -19 -36 -42 -33
-54 -46 -177 -21 -206 16 -17 49 -77 48 -87 0 -3 0 -9 0 -15 0 -5 12 -10 26
-10 14 0 23 -4 19 -9 -3 -5 -1 -12 5 -16 5 -3 10 -17 10 -31 0 -18 4 -23 13
-17 6 4 4 -5 -6 -20 -17 -26 -15 -83 3 -72 4 3 10 -2 14 -10 6 -17 -29 -39
-50 -31 -8 3 -21 3 -29 0 -12 -5 -12 -9 1 -29 8 -13 16 -42 17 -66 2 -36 -1
-44 -18 -47 -62 -12 -49 -57 20 -68 25 -3 47 -10 50 -14 13 -21 -64 -111 -139
-163 -14 -10 -26 -27 -26 -37 0 -11 -6 -20 -14 -20 -21 0 -31 -51 -12 -62 22
-12 20 -29 -8 -55 -17 -17 -22 -30 -18 -50 3 -16 7 -22 10 -15 3 11 52 42 67
42 3 0 5 -7 5 -15 0 -7 8 -19 17 -24 17 -10 17 -10 -1 -11 -14 0 -16 -3 -7
-13 6 -8 9 -16 6 -19 -3 -2 -7 -18 -9 -34 -7 -46 -23 -92 -47 -130 -16 -26
-20 -44 -16 -71 5 -29 -4 -62 -39 -152 -90 -231 -125 -304 -354 -746 -160
-307 -217 -421 -222 -443 -5 -19 -11 -22 -27 -17 -15 4 -21 2 -22 -9 -1 -9 -2
-22 -3 -28 -1 -7 16 -34 38 -60 23 -25 52 -61 65 -79 30 -38 104 -74 127 -61
15 8 15 10 -1 16 -12 4 -15 13 -10 35 5 23 2 29 -13 33 -11 3 -21 18 -25 36
-5 22 -17 36 -49 54 -24 13 -44 31 -46 42 -4 17 111 259 172 361 52 88 312
608 341 680 15 39 33 84 40 100 62 140 75 179 73 209 -1 23 -6 32 -15 29 -14
-5 -17 15 -7 41 8 21 21 20 28 -2 5 -14 14 -17 41 -14 28 3 38 11 51 38 9 18
28 46 42 61 l27 28 3 -27 c4 -33 12 -35 35 -8 9 11 25 20 34 21 83 3 85 37 4
64 -71 23 -69 47 11 130 34 36 68 65 75 65 7 0 13 5 13 10 0 6 4 10 10 10 5 0
29 19 52 41 53 51 85 65 107 45 17 -14 82 -39 139 -51 18 -4 46 -21 62 -38 29
-31 30 -31 36 -10 4 13 11 20 20 16 10 -4 14 3 14 20 0 28 15 44 25 27 3 -5 8
-34 10 -63 3 -42 -2 -65 -20 -103 -14 -27 -25 -44 -25 -38 0 7 -7 14 -15 18
-10 4 -20 -6 -30 -29 -19 -45 -42 -91 -65 -135 -11 -19 -19 -55 -20 -80 0 -40
-10 -62 -82 -171 -174 -264 -233 -360 -345 -559 -289 -514 -335 -590 -396
-654 -51 -54 -81 -100 -75 -118 5 -14 102 69 117 100 6 12 35 55 65 95 52 69
146 219 146 232 0 3 15 30 34 60 19 29 43 71 53 92 38 77 218 391 285 495 38
59 75 123 84 143 11 28 19 35 34 30 10 -3 21 -1 24 4 4 6 13 8 20 5 12 -5 96
88 96 107 0 4 -7 14 -15 23 -14 13 -13 19 2 50 9 19 20 33 24 31 3 -3 9 4 12
15 3 11 11 20 17 20 8 0 9 -7 5 -17 -17 -41 -35 -107 -30 -111 3 -3 23 16 46
41 22 26 45 46 52 44 6 -1 22 19 36 44 14 25 38 60 53 77 15 18 29 41 33 52 3
11 10 20 14 20 7 0 35 73 45 122 10 44 32 58 90 58 28 0 57 -5 64 -12 7 -7 13
-35 14 -63 1 -46 2 -47 5 -11 4 40 42 86 70 86 7 0 38 16 70 36 32 20 70 43
85 52 16 10 28 21 28 25 0 4 22 29 49 55 39 38 51 58 61 102 7 30 17 60 22 67
6 7 12 33 14 59 3 25 5 49 6 52 1 4 -2 23 -6 42 -3 19 -8 82 -11 140 -2 58 -6
121 -9 140 -7 48 -27 165 -37 220 -5 25 -13 83 -18 130 -13 121 -19 151 -57
278 -37 122 -52 152 -87 171 -21 11 -30 8 -83 -28 -32 -22 -72 -43 -89 -46
-17 -3 -23 -2 -15 2 28 14 130 88 130 94 0 4 -17 18 -38 31 -52 35 -155 142
-203 213 -117 171 -183 368 -240 715 -7 41 -13 138 -12 215 0 137 20 375 32
375 3 0 26 -14 51 -30 53 -35 57 -35 132 -12 45 14 55 21 46 30 -7 7 -20 12
-31 12 -51 0 -72 43 -45 93 28 53 68 51 68 -3 0 -58 82 -88 147 -56 15 8 40
19 55 25 25 9 26 11 15 48 -6 21 -19 44 -29 51 -11 8 -30 25 -43 40 -13 14
-28 23 -31 19 -4 -4 1 -14 12 -23 18 -15 18 -15 -6 -8 -48 13 -115 15 -159 5
-55 -12 -68 -6 -44 21 l18 21 -35 -18 c-37 -18 -110 -88 -110 -105 0 -6 -4
-10 -9 -10 -25 0 -17 249 9 265 33 20 122 24 247 10 169 -19 171 -19 175 3 6
24 -12 61 -31 67 -15 4 -135 21 -171 24 -8 1 -46 4 -83 7 l-68 6 -41 -43 -41
-43 7 134 c11 195 49 382 97 472 61 114 172 169 387 190 127 12 146 13 389 9
152 -2 165 -4 210 -27 26 -14 56 -33 66 -42 17 -15 80 -120 120 -200 43 -84
47 -94 47 -111 0 -10 7 -32 15 -49 9 -17 18 -53 22 -80 l5 -49 -99 5 c-114 5
-212 -15 -325 -67 -37 -17 -78 -33 -92 -37 -39 -9 -51 -32 -47 -86 2 -27 38
-23 148 17 177 64 279 87 358 83 79 -4 100 -16 115 -68 7 -26 6 -30 -11 -30
-10 0 -19 -4 -19 -10 0 -13 -33 -13 -46 0 -7 7 -20 6 -39 -4 -16 -9 -40 -13
-52 -10 -18 5 -22 3 -17 -10 5 -13 -2 -16 -37 -17 -69 -1 -135 -14 -164 -33
-35 -23 -27 -30 13 -10 22 10 37 12 49 6 14 -8 11 -13 -23 -30 -46 -24 -89
-68 -132 -138 -33 -52 -39 -74 -23 -74 24 0 42 15 57 45 16 35 101 108 118
102 5 -2 13 -16 17 -31 9 -33 36 -65 64 -77 16 -6 14 -8 -13 -8 -30 -1 -33 -4
-30 -28 2 -21 11 -30 33 -37 17 -5 40 -13 52 -19 12 -5 34 -7 50 -3 15 4 34 7
41 8 6 1 12 5 12 8 0 4 18 10 40 14 23 3 49 10 58 15 45 23 95 41 99 37 3 -3
16 -1 29 4 15 6 31 5 46 -3 35 -18 68 -50 68 -65 0 -7 6 -15 13 -18 15 -6 22
-154 7 -154 -13 0 -13 -47 0 -55 7 -4 5 -14 -5 -28 -8 -12 -15 -30 -15 -40 0
-10 -4 -15 -10 -12 -5 3 -10 -1 -10 -9 0 -9 -4 -16 -10 -16 -5 0 -10 -6 -10
-14 0 -7 -9 -16 -20 -19 -12 -3 -20 -14 -20 -26 0 -13 -6 -21 -16 -21 -10 0
-14 -5 -10 -16 3 -8 -4 -29 -16 -45 -30 -41 -45 -181 -17 -163 5 3 8 -3 7 -13
-3 -43 3 -73 15 -73 8 0 14 -6 14 -13 0 -23 35 -69 43 -56 14 22 34 -34 37
-106 2 -38 5 -79 7 -89 3 -11 0 -29 -7 -40 -12 -22 -15 -34 -24 -78 -3 -16 -9
-28 -13 -28 -5 0 -11 -14 -15 -30 -4 -17 -11 -28 -16 -24 -5 3 -9 1 -9 -4 0
-5 -16 -26 -35 -47 -30 -33 -36 -36 -51 -24 -14 12 -19 10 -34 -9 -10 -12 -23
-22 -29 -22 -6 0 -11 -3 -11 -7 0 -11 -69 -57 -76 -50 -3 3 -14 -3 -25 -14
-10 -10 -27 -19 -37 -19 -25 0 -89 -46 -97 -70 -3 -11 -14 -20 -24 -20 -9 0
-39 -22 -67 -49 -27 -26 -59 -51 -70 -55 -11 -3 -29 -14 -40 -24 -61 -53 -136
-82 -229 -89 -70 -5 -82 -8 -78 -22 3 -10 2 -12 -4 -5 -12 16 -51 23 -57 10
-3 -7 -5 -7 -5 2 -1 6 -6 12 -11 12 -21 0 21 -47 61 -68 46 -25 53 -27 43 -11
-3 6 13 -3 36 -20 43 -31 65 -32 75 -3 8 27 125 57 125 32 0 -5 -8 -10 -17
-10 -15 0 -16 -2 -3 -9 8 -6 18 -7 22 -5 14 9 8 -14 -8 -31 -24 -24 -1 -45 50
-45 22 0 74 -6 115 -14 41 -8 79 -12 85 -10 13 5 72 -35 76 -51 6 -22 26 -42
51 -48 22 -6 38 6 120 84 52 50 112 103 133 117 95 65 124 84 178 112 68 36
75 36 110 7 25 -20 28 -30 34 -114 6 -87 5 -95 -21 -150 -15 -32 -43 -77 -62
-101 -22 -26 -32 -49 -29 -60 7 -21 4 -38 -6 -35 -5 2 -8 -9 -9 -25 0 -24 -1
-25 -9 -7 -6 14 -9 16 -9 4 -1 -14 -44 -59 -56 -59 -9 0 -75 -75 -80 -92 -4
-10 -13 -18 -21 -18 -8 0 -14 -4 -14 -8 0 -5 -11 -15 -25 -22 -13 -7 -23 -16
-22 -19 1 -3 -4 -16 -11 -28 -9 -17 -9 -22 1 -26 8 -3 6 -7 -7 -12 -10 -5 -30
-19 -44 -31 -14 -13 -31 -24 -39 -24 -25 0 -132 -122 -159 -180 -14 -30 -34
-73 -44 -95 -11 -23 -19 -60 -18 -86 1 -40 -4 -51 -36 -85 -20 -22 -41 -56
-46 -79 -6 -22 -17 -62 -25 -88 -11 -37 -12 -54 -4 -69 14 -26 60 -67 76 -68
7 0 16 -8 22 -17 7 -14 12 -15 24 -5 12 10 19 6 43 -25 16 -21 40 -47 53 -58
40 -32 122 -58 179 -57 38 1 52 -2 52 -13 0 -36 -234 -489 -292 -564 -10 -13
-32 -31 -50 -41 -19 -10 -34 -27 -36 -39 -2 -12 -10 -25 -18 -28 -8 -3 -14
-17 -14 -32 0 -15 -6 -35 -14 -46 -7 -11 -16 -38 -19 -61 -7 -45 -26 -94 -38
-94 -4 0 -9 7 -13 15 -3 8 -12 12 -21 9 -9 -4 -15 -1 -15 9 0 8 4 17 8 19 13
5 22 72 12 88 -7 11 -13 9 -29 -11 -11 -13 -21 -31 -21 -39 0 -8 -7 -23 -14
-33 -12 -15 -15 -16 -26 -2 -10 12 -16 13 -26 4 -8 -6 -14 -18 -14 -25 0 -8
-4 -14 -10 -14 -5 0 -10 -11 -10 -24 0 -29 50 -69 73 -60 9 3 25 0 37 -6 12
-7 59 -25 104 -41 77 -28 81 -29 94 -12 7 10 16 29 19 43 3 14 14 36 23 50 35
51 35 52 -4 45 -23 -5 -36 -3 -36 4 0 11 43 25 71 24 8 -1 26 18 39 43 19 34
22 46 12 56 -16 16 -15 33 2 71 8 18 16 39 19 47 7 25 47 -51 47 -90 0 -45
-31 -112 -64 -141 -36 -31 -35 -56 0 -32 15 9 36 18 47 18 12 1 26 10 32 20 5
10 20 30 33 46 30 37 76 139 97 219 22 80 144 332 203 419 45 66 109 194 177
356 21 50 50 108 65 130 58 87 154 254 186 323 18 41 38 71 43 67 6 -3 18 -22
27 -41 9 -20 29 -43 43 -52 37 -23 84 -62 75 -62 -4 0 1 -7 12 -15 14 -11 15
-14 4 -15 -20 0 -35 11 -43 33 -3 9 -11 17 -16 17 -17 0 0 -31 37 -68 18 -20
38 -45 42 -57 12 -33 65 -40 100 -15 15 11 35 20 44 20 9 0 19 7 22 15 4 8 12
15 20 15 8 0 14 5 14 10 0 6 5 10 10 10 11 0 21 9 88 70 24 22 46 40 51 40 4
0 17 17 29 38 12 20 35 51 52 69 16 18 30 37 30 42 0 6 4 11 9 11 5 0 14 13
21 30 7 17 41 50 81 79 80 59 108 74 170 90 40 11 52 11 81 -3 27 -13 41 -14
61 -7 52 20 23 83 -49 105 -11 3 -47 34 -80 68 -122 126 -132 140 -126 176 3
23 11 25 72 22 27 -1 48 8 90 40 30 23 61 45 69 50 15 8 18 140 5 267 -5 54
-9 63 -33 72 -14 6 -43 10 -64 9 -47 -2 -76 26 -102 97 -26 72 -42 93 -78 101
-38 8 -57 26 -57 53 0 11 -4 23 -10 26 -11 7 -14 143 -4 169 3 9 32 23 63 32
73 22 231 95 267 125 78 65 87 78 80 117 -3 20 -6 52 -6 70 0 43 -26 54 -53
21 -10 -13 -22 -24 -26 -25 -3 0 -27 -21 -53 -47 -60 -59 -108 -73 -169 -52
-112 40 -143 124 -153 420 -9 254 -18 326 -87 702 -10 56 -34 141 -52 190 -19
48 -38 99 -42 113 -4 14 -14 34 -21 45 -8 11 -14 26 -14 33 0 16 -54 132 -144
312 -48 95 -76 156 -76 165 0 14 -69 183 -91 222 -39 69 -76 110 -281 308
-161 157 -231 203 -322 212 -28 3 -82 11 -121 19 -38 8 -88 14 -110 14 -22 1
-58 7 -80 15 -58 21 -371 20 -440 -2z m219 -1612 c3 -5 -1 -12 -10 -15 -22 -9
-24 -8 -24 9 0 16 25 21 34 6z m-876 -158 c-2 -10 -10 -18 -18 -18 -8 0 -16 8
-18 18 -2 12 3 17 18 17 15 0 20 -5 18 -17z m2027 -874 c15 -96 18 -314 6
-359 -7 -24 -7 -24 -15 -5 -5 11 -12 101 -17 200 -9 211 -15 253 -40 268 -11
7 -19 23 -19 37 0 24 0 24 35 -11 33 -32 37 -44 50 -130z m-2818 119 c-3 -7
-5 -2 -5 12 0 14 2 19 5 13 2 -7 2 -19 0 -25z m2703 2 c0 -5 -2 -10 -4 -10 -3
0 -8 5 -11 10 -3 6 -1 10 4 10 6 0 11 -4 11 -10z m-2683 -72 c-3 -8 -6 -5 -6
6 -1 11 2 17 5 13 3 -3 4 -12 1 -19z m14 -31 c-1 -4 -1 -30 -1 -58 0 -40 -3
-49 -12 -41 -15 12 -11 115 4 110 5 -2 9 -7 9 -11z m-1 -147 c0 -11 -2 -20 -4
-20 -2 0 -6 9 -9 20 -3 11 -1 20 4 20 5 0 9 -9 9 -20z m3453 -50 c10 0 17 -8
17 -20 0 -18 -7 -20 -60 -20 -33 0 -60 4 -60 9 0 17 44 42 65 37 11 -3 28 -6
38 -6z m62 -10 c-3 -5 -13 -10 -21 -10 -8 0 -14 5 -14 10 0 6 9 10 21 10 11 0
17 -4 14 -10z m-3097 -152 c-26 -59 -32 -90 -36 -165 -4 -93 -14 -118 -25 -64
-10 51 1 147 22 196 19 44 58 105 66 105 2 0 -10 -33 -27 -72z m-241 -10 c-3
-8 -6 -5 -6 6 -1 11 2 17 5 13 3 -3 4 -12 1 -19z m3136 -560 c-9 -10 -22 -18
-30 -18 -19 0 -16 28 5 32 37 8 42 5 25 -14z m-3362 -90 c-3 -21 -6 -26 -9
-15 -3 17 3 47 11 47 2 0 1 -15 -2 -32z m2947 -712 c38 -57 41 -76 10 -72 -62
8 -104 57 -91 106 9 35 45 20 81 -34z m-2958 -11 c35 -18 38 -43 10 -68 -21
-17 -75 -23 -84 -9 -2 4 -2 27 1 50 6 47 22 53 73 27z m2863 -77 c29 -49 29
-72 -1 -61 -37 14 -67 86 -55 132 l6 26 11 -25 c6 -14 24 -46 39 -72z m-2148
-58 c19 -1 19 -1 2 -11 -10 -6 -25 -8 -32 -5 -8 3 -21 -1 -29 -9 -12 -12 -15
-12 -19 -1 -8 19 15 38 38 32 11 -3 29 -6 40 -6z m-7 -107 c-2 -11 -14 -19
-31 -21 -29 -4 -35 6 -15 26 19 19 50 15 46 -5z m217 -104 c8 -34 -12 -92 -29
-86 -6 2 -10 13 -9 23 1 10 3 38 4 60 3 49 24 50 34 3z m-142 4 c46 -7 57 -29
58 -110 1 -38 -4 -60 -17 -74 -21 -23 -42 -25 -51 -3 -3 9 -24 34 -46 56 -35
35 -39 43 -34 74 10 61 22 69 90 57z m1192 -383 c51 0 77 -22 53 -46 -13 -13
-21 -13 -57 -2 -25 8 -39 18 -37 25 3 7 1 15 -4 18 -6 4 -9 14 -9 23 1 15 2
15 6 0 3 -14 15 -18 48 -18z m-1545 -209 c0 -16 -7 -34 -15 -41 -13 -11 -15
-8 -15 13 0 32 9 57 21 57 5 0 9 -13 9 -29z m1341 -577 c22 -20 15 -41 -22
-60 -18 -9 -29 -23 -30 -37 -1 -42 -33 -110 -56 -118 -20 -7 -23 -5 -23 14 1
59 30 157 56 186 31 35 49 38 75 15z m-122 -265 c12 -12 20 -23 17 -26 -6 -6
-55 29 -56 40 0 13 16 7 39 -14z m71 17 c0 -3 -4 -8 -10 -11 -5 -3 -10 -1 -10
4 0 6 5 11 10 11 6 0 10 -2 10 -4z"/>
<path d="M1591 8290 c-18 -32 -38 -66 -46 -73 -31 -31 -62 -132 -69 -220 -4
-59 -3 -86 4 -82 5 3 10 16 10 27 0 32 38 152 65 206 29 58 78 192 72 198 -2
2 -18 -23 -36 -56z"/>
<path d="M1626 7833 c-9 -10 -7 -55 3 -49 12 8 21 45 11 51 -4 2 -10 2 -14 -2z"/>
<path d="M2888 7778 c4 -15 2 -19 -7 -13 -9 5 -12 2 -9 -11 2 -12 12 -19 25
-18 12 0 19 -4 16 -9 -3 -5 -13 -7 -23 -4 -14 4 -20 -9 -35 -72 -10 -42 -24
-85 -31 -96 -8 -11 -14 -27 -14 -37 0 -9 -7 -38 -16 -64 -9 -26 -17 -75 -18
-108 -1 -47 -8 -72 -29 -109 -16 -26 -29 -58 -30 -70 0 -12 -5 -25 -11 -29 -6
-4 -4 -18 4 -37 14 -34 63 -51 98 -32 12 6 53 8 108 5 l89 -6 34 31 c32 30 33
34 28 83 -7 57 -60 154 -89 164 -18 5 -20 14 -23 92 -1 24 -6 47 -12 50 -12 8
-32 96 -28 120 15 77 15 75 34 58 16 -15 17 -15 15 6 -1 13 -3 33 -3 45 -1 12
-9 24 -21 28 -11 3 -20 15 -20 25 0 10 -7 21 -16 24 -22 9 -23 8 -16 -16z"/>
<path d="M2960 7630 c0 -5 5 -10 10 -10 6 0 10 5 10 10 0 6 -4 10 -10 10 -5 0
-10 -4 -10 -10z"/>
<path d="M2582 7108 c-13 -13 2 -48 21 -48 21 0 47 24 39 36 -11 18 -47 25
-60 12z"/>
<path d="M3006 6819 c-21 -3 -48 -4 -59 -1 -12 3 -18 1 -14 -5 12 -19 -52 -46
-94 -39 -31 5 -39 3 -39 -9 0 -14 -22 -20 -62 -17 -10 1 -18 -3 -18 -8 0 -5
-12 -9 -27 -8 -47 1 -166 -23 -190 -39 -55 -36 -9 -42 127 -18 153 28 324 38
366 21 l26 -11 -28 -33 c-16 -17 -36 -32 -46 -32 -10 0 -18 -4 -18 -10 0 -5
-12 -16 -27 -24 -24 -13 -25 -15 -8 -16 11 0 36 5 55 11 19 6 49 13 65 16 50
8 115 42 115 59 0 10 6 14 14 11 9 -4 16 3 20 19 4 16 21 31 51 45 30 14 45
28 45 40 0 10 -1 19 -3 19 -1 0 -25 8 -54 19 -28 10 -56 15 -62 11 -7 -4 -31
-4 -54 0 -23 3 -60 3 -81 -1z"/>
<path d="M1810 5670 c-12 -8 -11 -10 8 -10 12 0 22 5 22 10 0 13 -11 13 -30 0z"/>
<path d="M1793 5635 c-7 -8 -13 -18 -13 -24 0 -5 -6 -12 -12 -14 -10 -4 -10
-8 1 -15 19 -13 54 17 40 34 -7 9 -5 15 8 23 14 8 14 10 3 10 -8 0 -21 -6 -27
-14z"/>
<path d="M5437 5214 c-6 -7 9 -37 32 -66 16 -20 65 -25 59 -6 -6 17 -84 79
-91 72z"/>
<path d="M5748 5043 c-16 -4 -16 -6 0 -24 9 -10 23 -19 32 -19 34 0 90 -22 90
-35 0 -16 30 -35 54 -35 22 0 20 19 -1 27 -10 4 -20 9 -23 13 -11 14 -115 80
-125 79 -5 -1 -18 -3 -27 -6z"/>
<path d="M6095 4821 c-12 -38 -30 -44 -76 -22 -23 12 -44 20 -45 18 -3 -3 30
-43 110 -132 29 -33 77 -87 106 -120 l52 -60 -38 -3 c-21 -2 -40 1 -42 7 -2 5
-10 7 -18 4 -8 -3 -14 0 -14 7 0 7 -7 10 -15 6 -8 -3 -27 -1 -41 5 -15 5 -29
7 -32 4 -7 -7 102 -108 234 -216 44 -35 85 -72 92 -81 7 -10 20 -18 29 -18 13
0 15 8 9 47 -3 26 -15 65 -25 88 -10 22 -22 60 -25 85 -7 45 -54 137 -81 160
-9 7 -26 34 -38 59 -37 74 -61 116 -70 119 -4 2 -14 17 -22 33 -18 33 -41 38
-50 10z"/>
<path d="M3141 4704 c1 -27 6 -56 11 -64 4 -8 13 -28 20 -45 10 -27 12 -28 15
-8 2 12 -3 35 -11 52 -9 16 -18 47 -21 67 -7 55 -16 54 -14 -2z"/>
<path d="M5970 4585 c0 -2 10 -10 23 -16 20 -11 21 -11 8 4 -13 16 -31 23 -31
12z"/>
<path d="M934 4282 c-6 -4 -14 -17 -18 -29 -7 -21 -5 -22 23 -12 20 7 31 18
31 30 0 19 -16 25 -36 11z"/>
<path d="M2435 4165 c-23 -122 -16 -230 20 -344 l27 -84 30 61 c29 58 30 63
15 80 -10 11 -17 38 -18 65 -1 25 -5 44 -9 42 -3 -2 -12 57 -20 131 -7 74 -16
137 -20 139 -4 2 -15 -38 -25 -90z"/>
<path d="M1455 4140 c-3 -5 -1 -10 4 -10 6 0 11 5 11 10 0 6 -2 10 -4 10 -3 0
-8 -4 -11 -10z"/>
<path d="M1433 4105 c-7 -7 -17 -15 -23 -17 -14 -4 -3 -35 15 -42 7 -2 20 3
28 12 12 14 13 21 4 38 -10 18 -14 19 -24 9z"/>
<path d="M6355 3983 c4 -21 7 -45 9 -53 6 -42 40 -87 72 -99 19 -7 42 -25 52
-39 9 -15 22 -30 28 -34 7 -4 15 -20 19 -35 9 -37 66 -112 85 -113 22 0 80 67
80 93 0 25 -19 79 -42 122 -16 30 -57 66 -90 78 -10 3 -18 16 -18 27 0 11 -6
20 -14 20 -8 0 -16 6 -19 13 -3 9 -9 9 -25 0 -13 -8 -23 -9 -27 -3 -3 6 -13
10 -21 10 -8 0 -26 11 -40 25 -38 38 -55 33 -49 -12z"/>
<path d="M6730 3691 c0 -19 13 -41 24 -41 6 0 19 -11 28 -24 15 -21 15 -25 -3
-65 -40 -89 -14 -96 33 -9 l30 57 -22 30 c-12 17 -27 31 -34 31 -8 0 -19 7
-26 15 -14 17 -30 20 -30 6z"/>
<path d="M3090 3544 c0 -9 5 -14 12 -12 18 6 21 28 4 28 -9 0 -16 -7 -16 -16z"/>
<path d="M2968 3246 c-16 -13 -28 -29 -28 -37 0 -10 3 -10 12 -1 16 16 47 -3
42 -26 -3 -10 5 -27 19 -40 22 -20 27 -21 52 -10 25 11 29 10 49 -15 26 -32
37 -34 53 -8 10 16 8 22 -12 41 -14 13 -31 20 -39 17 -9 -4 -36 3 -61 14 -36
16 -45 25 -45 44 0 14 -5 25 -11 25 -5 0 -7 5 -4 10 10 16 2 12 -27 -14z"/>
<path d="M3360 3230 c0 -11 -3 -20 -7 -20 -5 0 -9 -12 -10 -27 -1 -19 1 -22 8
-12 7 12 9 12 9 -1 0 -12 40 63 40 76 0 2 -9 4 -20 4 -13 0 -20 -7 -20 -20z"/>
<path d="M3430 3229 c0 -20 -46 -124 -71 -160 -10 -15 -21 -52 -25 -83 l-7
-56 32 0 c37 0 64 14 103 55 35 37 118 171 118 190 0 20 -40 45 -73 45 -15 0
-30 6 -33 14 -8 20 -44 16 -44 -5z"/>
<path d="M6627 3237 c-2 -7 -22 -21 -43 -32 -22 -11 -41 -22 -44 -25 -3 -3
-18 -7 -35 -8 -16 -1 -36 -9 -45 -17 -13 -14 -13 -17 0 -25 8 -5 18 -11 23
-12 4 -2 12 -32 18 -66 13 -70 2 -112 -26 -112 -9 0 -13 -5 -9 -11 13 -21 106
-3 185 35 42 20 81 36 87 36 15 0 72 33 72 43 0 4 -5 7 -11 7 -6 0 -1 9 12 20
l24 19 -37 -11 c-43 -13 -68 0 -68 36 0 12 -5 27 -12 34 -9 9 -9 20 1 47 7 19
10 39 6 44 -7 13 -45 10 -45 -3 0 -6 -5 -5 -12 2 -16 16 -35 15 -41 -1z"/>
<path d="M3217 3105 c-4 -8 -2 -17 3 -20 6 -4 10 3 10 14 0 25 -6 27 -13 6z"/>
<path d="M3309 3087 c-22 -45 -11 -66 12 -23 10 20 19 40 19 46 0 20 -15 9
-31 -23z"/>
<path d="M2958 3083 c0 -10 0 -26 0 -36 1 -11 -6 -32 -15 -48 -26 -43 -6 -58
44 -32 32 17 38 25 36 49 -3 35 -62 96 -65 67z"/>
<path d="M6742 2958 c-30 -23 -42 -39 -42 -58 0 -15 -3 -30 -7 -34 -5 -4 -8
-19 -8 -32 -1 -18 4 -24 21 -24 30 0 35 -10 37 -70 1 -38 5 -50 16 -50 13 0
13 -2 3 -9 -11 -7 -11 -9 2 -14 21 -8 20 -27 -1 -27 -14 0 -13 -3 5 -16 18
-13 21 -19 11 -30 -9 -11 -8 -14 6 -14 14 0 15 -3 5 -15 -6 -8 -8 -20 -4 -26
9 -15 15 -60 14 -108 -1 -21 6 -38 17 -47 14 -10 15 -13 4 -14 -11 0 -9 -4 5
-15 15 -12 16 -16 5 -24 -8 -5 -10 -14 -5 -22 4 -7 7 -30 5 -50 -1 -20 2 -45
8 -56 16 -29 30 -83 26 -96 -13 -40 -14 -91 -2 -106 8 -9 22 -38 32 -66 10
-27 29 -59 41 -71 31 -28 45 -67 45 -131 1 -29 6 -53 11 -53 6 0 21 -11 33
-24 18 -20 21 -34 20 -97 0 -41 3 -80 8 -87 6 -7 7 -15 4 -19 -4 -3 3 -17 14
-31 l20 -25 -28 -29 c-15 -15 -32 -28 -39 -28 -7 0 -25 -11 -41 -24 -15 -13
-43 -31 -61 -40 -68 -35 -305 -126 -329 -126 -13 0 -40 -7 -61 -16 -92 -39
-483 -98 -603 -91 -537 31 -499 27 -569 60 -58 27 -76 27 -70 1 1 -4 -10 -14
-24 -23 -57 -38 -130 -180 -180 -351 -28 -99 -47 -138 -62 -133 -6 2 -35 -33
-64 -77 -29 -45 -64 -90 -78 -101 -14 -10 -23 -21 -21 -24 3 -2 21 -15 41 -28
l36 -25 29 36 c16 21 40 55 53 77 13 22 28 42 32 43 4 2 8 10 8 17 0 7 3 15 8
17 12 5 72 86 72 97 0 6 6 11 13 11 16 0 20 -46 7 -68 -8 -13 -9 -10 -4 12 5
21 4 27 -5 22 -6 -4 -11 -22 -11 -41 0 -20 -16 -64 -41 -110 -38 -70 -41 -80
-35 -127 6 -42 5 -50 -8 -45 -15 6 -38 -14 -35 -29 4 -16 -13 -64 -23 -64 -5
0 -7 -4 -4 -9 18 -28 216 75 208 108 -1 8 4 10 16 7 21 -7 387 201 517 293 44
32 101 69 127 84 60 35 79 54 71 73 -5 13 -1 15 18 10 20 -6 21 -5 6 4 -9 6
-21 9 -26 5 -5 -3 -12 1 -15 7 -4 7 -4 2 -2 -12 5 -24 4 -24 -9 -6 -8 11 -12
31 -10 45 5 22 4 23 -4 6 -8 -19 -9 -18 -20 8 -6 16 -11 33 -11 38 0 5 -4 9
-9 9 -15 0 -32 58 -19 66 7 5 8 2 3 -6 -5 -9 -4 -11 4 -6 6 4 9 12 5 17 -3 5
-9 7 -14 4 -10 -6 -26 14 -35 45 -6 23 -5 23 14 -5 12 -16 21 -24 21 -17 0 13
28 -13 46 -43 6 -10 16 -21 24 -23 9 -3 10 0 4 9 -5 8 -9 33 -10 57 -1 42 -1
42 33 42 19 0 32 4 29 9 -3 4 30 7 74 6 44 -2 80 0 80 4 0 3 15 6 33 7 60 1
152 13 187 23 19 6 44 10 55 9 29 -1 157 28 253 58 46 14 100 25 120 23 20 -1
45 2 56 6 25 11 51 -7 50 -34 0 -14 4 -20 12 -17 8 3 11 0 7 -10 -4 -10 2 -14
21 -14 26 0 35 -13 16 -25 -6 -4 -4 -13 6 -22 23 -24 14 -215 -15 -298 -11
-33 -20 -55 -21 -50 0 6 -5 3 -10 -5 -5 -8 -7 -23 -4 -32 3 -11 0 -18 -8 -18
-7 0 -22 -18 -32 -40 -11 -22 -23 -40 -28 -40 -4 0 -8 -8 -8 -18 0 -9 -9 -23
-21 -30 -14 -9 -19 -20 -16 -33 3 -12 0 -22 -9 -26 -8 -3 -14 -10 -14 -15 0
-12 -39 -48 -52 -48 -4 0 -8 -5 -8 -12 0 -19 -44 -78 -62 -84 -10 -3 -18 -14
-18 -24 0 -10 -14 -28 -30 -40 -17 -12 -37 -35 -45 -51 -9 -16 -22 -29 -29
-29 -8 0 -16 -6 -19 -14 -3 -7 -27 -24 -54 -37 -26 -14 -48 -31 -48 -39 0 -8
-7 -15 -15 -16 -43 -3 -50 -5 -50 -14 0 -6 103 -10 290 -10 l291 0 89 76 c144
123 175 178 191 340 14 150 14 426 1 624 -7 96 -15 223 -19 282 -3 59 -10 105
-14 102 -13 -8 -11 50 1 62 22 22 -38 365 -79 460 -20 45 -33 96 -55 229 -9
50 -25 131 -36 180 -12 50 -29 133 -39 185 -27 137 -79 380 -89 415 -12 43
-46 44 -100 3z m-657 -1928 c-3 -5 -14 -10 -23 -9 -14 0 -13 2 3 9 27 11 27
11 20 0z m-675 -10 c0 -30 -82 -190 -102 -198 -4 -2 -8 -10 -8 -17 0 -8 -8
-20 -18 -27 -10 -7 -22 -22 -26 -33 -6 -14 -10 -16 -13 -7 -3 7 2 21 11 31 9
10 16 25 16 34 0 9 5 19 10 22 6 3 10 20 10 36 0 17 4 28 9 25 5 -3 11 4 14
15 4 13 10 18 18 14 7 -5 10 -3 7 6 -7 19 46 108 65 109 4 0 7 -4 7 -10z
m-400 -501 c-7 -11 -14 -19 -16 -16 -7 7 7 37 17 37 6 0 5 -9 -1 -21z"/>
<path d="M1296 2644 c-58 -21 -68 -32 -53 -54 9 -16 7 -23 -12 -44 l-24 -25
29 -12 c33 -12 147 -4 152 11 2 6 14 7 26 4 30 -7 48 16 44 57 -6 60 -86 91
-162 63z m52 -34 c4 -24 -21 -52 -41 -44 -9 3 -17 12 -17 19 0 7 -6 15 -12 18
-16 6 31 27 52 24 8 -1 16 -9 18 -17z"/>
<path d="M5085 2530 c-9 -15 3 -45 25 -65 19 -18 20 -17 20 11 -1 27 -20 64
-33 64 -3 0 -9 -5 -12 -10z"/>
<path d="M5199 1568 c0 -18 -2 -52 -5 -75 -3 -27 -1 -43 6 -43 6 0 10 29 10
75 0 41 -2 75 -5 75 -3 0 -5 -15 -6 -32z"/>
<path d="M5900 850 c-9 -6 -10 -10 -3 -10 6 0 15 5 18 10 8 12 4 12 -15 0z"/>
<path d="M6000 809 c0 -5 5 -7 10 -4 6 3 10 8 10 11 0 2 -4 4 -10 4 -5 0 -10
-5 -10 -11z"/>
<path d="M4477 783 c-3 -5 46 -63 110 -129 64 -65 107 -108 97 -94 -10 14 -45
53 -77 86 -33 34 -56 67 -53 73 5 7 1 9 -8 5 -9 -3 -16 -1 -16 5 0 18 -47 65
-53 54z"/>
<path d="M3575 690 c-3 -5 -1 -10 4 -10 6 0 11 5 11 10 0 6 -2 10 -4 10 -3 0
-8 -4 -11 -10z"/>
<path d="M4990 275 c0 -8 5 -15 10 -15 6 0 10 7 10 15 0 8 -4 15 -10 15 -5 0
-10 -7 -10 -15z"/>
<path d="M4806 130 c-14 -22 -30 -40 -35 -40 -21 0 -91 -55 -91 -72 0 -24 20
-23 75 3 60 28 84 60 83 110 0 21 -1 39 -3 39 -1 0 -14 -18 -29 -40z"/>
</g>
</svg>
